<?xml version="1.0" standalone="no"?>
<!DOCTYPE svg PUBLIC "-//W3C//DTD SVG 20010904//EN"
 "http://www.w3.org/TR/2001/REC-SVG-20010904/DTD/svg10.dtd">
<svg version="1.0" xmlns="http://www.w3.org/2000/svg"
 width="400.000000pt" height="91.000000pt" viewBox="0 0 400.000000 91.000000"
 preserveAspectRatio="xMidYMid meet">
<metadata>
Created by potrace 1.11, written by Peter Selinger 2001-2013
</metadata>
<g transform="translate(0.000000,91.000000) scale(0.100000,-0.100000)"
fill="#000000" stroke="none">
<path d="M613 815 c-35 -15 -41 -31 -20 -58 11 -16 18 -14 90 22 53 26 72 41
61 45 -27 10 -98 6 -131 -9z"/>
<path d="M3284 816 c-42 -18 -47 -30 -26 -55 l17 -20 78 38 c54 27 73 40 62
45 -28 10 -98 6 -131 -8z"/>
<path d="M732 782 c-24 -9 -57 -28 -75 -43 -29 -24 -30 -28 -19 -53 7 -15 12
-47 12 -72 l0 -46 33 8 c17 4 50 8 72 9 49 1 65 26 65 103 0 50 -21 113 -38
111 -4 0 -26 -8 -50 -17z"/>
<path d="M3395 779 c-27 -11 -63 -30 -78 -42 -27 -22 -27 -24 -12 -53 8 -16
15 -48 15 -72 0 -40 2 -43 23 -36 12 4 44 8 71 8 45 1 51 4 62 31 18 42 17
111 -2 151 -9 19 -19 34 -23 33 -3 0 -28 -9 -56 -20z"/>
<path d="M832 761 c6 -20 8 -64 5 -112 -6 -71 -5 -78 13 -84 31 -10 40 2 40
53 0 64 -16 117 -45 149 l-25 28 12 -34z"/>
<path d="M3182 756 c-62 -71 -66 -158 -10 -221 58 -67 123 -33 123 65 0 34
-10 63 -41 118 l-41 73 -31 -35z"/>
<path d="M3496 769 c11 -29 12 -122 2 -166 -6 -28 -4 -32 19 -38 17 -4 29 -1
35 7 15 21 2 121 -21 166 -24 47 -48 69 -35 31z"/>
<path d="M511 756 c-58 -61 -58 -170 -1 -228 55 -55 109 -26 118 62 4 45 1 57
-32 109 -20 33 -36 64 -36 70 0 19 -25 12 -49 -13z"/>
<path d="M1905 741 c-44 -11 -121 -35 -171 -54 -94 -36 -688 -337 -667 -337
18 0 117 38 283 110 167 72 372 142 478 165 147 30 265 15 402 -52 67 -33 96
-58 270 -235 211 -214 245 -237 335 -238 36 0 68 8 110 30 33 16 70 30 83 30
13 0 56 -13 95 -30 100 -40 119 -44 160 -27 33 14 76 62 65 73 -3 2 -17 0 -32
-6 -40 -15 -67 -4 -158 61 -91 66 -111 74 -166 65 -118 -18 -148 -18 -181 -1
-19 9 -107 88 -197 175 -173 168 -247 221 -364 261 -91 31 -238 35 -345 10z"/>
<path d="M1250 741 c-53 -17 -96 -46 -233 -163 -213 -181 -271 -208 -438 -209
-120 0 -261 28 -438 87 -146 48 -145 48 -137 35 17 -27 246 -115 407 -156 341
-87 507 -44 804 205 96 81 152 109 218 110 26 0 47 2 47 5 0 18 -39 59 -71 76
-39 20 -112 24 -159 10z"/>
<path d="M3894 734 c-23 -8 -86 -52 -139 -97 -187 -157 -240 -198 -301 -228
-113 -56 -275 -54 -510 6 -76 19 -176 51 -223 71 -117 48 -119 48 -96 29 36
-31 197 -102 325 -143 167 -54 283 -75 410 -75 167 0 277 47 462 196 55 45
118 95 139 110 38 27 39 30 39 88 l0 59 -32 -1 c-18 0 -52 -7 -74 -15z"/>
<path d="M1710 563 c-25 -3 -49 -8 -53 -12 -5 -5 13 -6 40 -4 64 6 172 -18
284 -62 83 -34 93 -35 107 -21 14 14 14 17 -2 34 -9 11 -41 27 -70 36 -49 16
-210 38 -246 34 -8 -1 -35 -3 -60 -5z"/>
<path d="M674 546 c-31 -14 -64 -51 -64 -71 0 -18 67 -45 108 -45 25 0 54 10
83 29 45 29 96 78 88 85 -2 2 -44 7 -94 10 -67 5 -98 3 -121 -8z"/>
<path d="M3350 549 c-36 -15 -70 -49 -70 -71 0 -12 13 -24 35 -34 71 -29 132
-13 203 56 24 23 42 43 40 45 -10 9 -187 13 -208 4z"/>
<path d="M3860 420 c-141 -72 -156 -87 -44 -45 133 50 184 77 184 96 0 11 -1
19 -2 18 -2 0 -64 -31 -138 -69z"/>
<path d="M2187 466 c-21 -8 -41 -17 -44 -20 -10 -10 37 -64 71 -80 43 -20 62
-20 136 1 52 14 58 18 49 34 -14 26 -87 66 -134 73 -24 3 -56 0 -78 -8z"/>
<path d="M505 444 c-27 -13 -67 -24 -88 -24 -23 0 -36 -4 -32 -10 9 -15 131
-12 171 5 25 10 35 20 32 32 -5 26 -26 25 -83 -3z"/>
<path d="M3175 444 c-27 -13 -67 -24 -87 -24 -21 0 -38 -5 -38 -11 0 -7 28
-10 85 -8 70 3 88 8 106 25 21 22 19 45 -4 43 -7 0 -34 -11 -62 -25z"/>
<path d="M1432 410 c-40 -11 -130 -37 -200 -59 -232 -73 -312 -92 -422 -97
-58 -3 -133 -1 -167 3 -84 13 -70 -2 20 -21 139 -29 203 -28 460 5 355 45 463
33 656 -73 86 -48 140 -54 186 -24 l30 20 -38 15 c-31 11 -44 25 -67 71 -38
75 -72 115 -129 148 -41 24 -57 27 -151 29 -78 2 -124 -3 -178 -17z"/>
<path d="M2074 374 c-39 -66 -43 -135 -12 -193 13 -25 28 -46 34 -48 17 -6 77
131 77 175 0 45 -30 105 -55 110 -11 2 -26 -14 -44 -44z"/>
<path d="M0 288 l0 -123 47 -29 c71 -45 142 -48 229 -7 36 17 76 31 88 31 12
0 60 -16 106 -35 47 -19 93 -35 103 -35 32 0 88 32 100 57 14 30 7 35 -31 22
-39 -13 -78 4 -172 78 -56 43 -67 48 -114 47 -28 0 -72 -4 -98 -8 -76 -14
-111 -1 -188 65 l-70 60 0 -123z"/>
<path d="M3875 344 c-268 -86 -414 -108 -562 -86 -35 5 -63 5 -63 1 0 -11 83
-28 200 -39 94 -9 128 -7 325 18 l220 27 3 58 c2 31 -1 57 -5 56 -4 0 -57 -16
-118 -35z"/>
<path d="M2381 351 c-20 -13 -16 -167 6 -201 16 -24 16 -24 34 40 36 128 18
198 -40 161z"/>
<path d="M2207 333 c-2 -5 -5 -26 -6 -47 -1 -21 -6 -47 -11 -57 -16 -28 -12
-37 20 -54 32 -17 97 -20 119 -6 11 7 15 31 15 83 l1 73 -57 1 c-31 1 -61 5
-67 8 -5 4 -11 3 -14 -1z"/>
<path d="M2140 151 c-14 -28 -14 -29 23 -51 39 -24 97 -26 161 -4 62 21 49 34
-46 44 -40 4 -83 12 -95 18 -29 16 -31 15 -43 -7z"/>
</g>
</svg>
